<svg viewBox="0 0 100 100" fill="none" xmlns="http://www.w3.org/2000/svg">
  <path d="M0 24C0 10.7452 10.7452 0 24 0H76C89.2548 0 100 10.7452 100 24V76C100 89.2548 89.2548 100 76 100H24C10.7452 100 0 89.2548 0 76V24Z" fill="#4F8BF9"/>
  <path d="M50 15C50 35 65 50 85 50C65 50 50 65 50 85C50 65 35 50 15 50C35 50 50 35 50 15Z" fill="white"/>
  <path d="M75 20C75 25 79 28 83 28C79 28 75 31 75 36C75 31 71 28 67 28C71 28 75 25 75 20Z" fill="white" fill-opacity="0.8"/>
  <path d="M25 70C25 73 27 75 30 75C27 75 25 77 25 80C25 77 23 75 20 75C23 75 25 73 25 70Z" fill="white" fill-opacity="0.6"/>
</svg>